<svg xmlns="http://www.w3.org/2000/svg" viewBox="0 0 400 400" role="img" aria-labelledby="dev-title dev-desc">
  <title id="dev-title">Developer Avatar</title>
  <desc id="dev-desc">Illustrazione cartoon di una software developer donna con capelli lunghi mossi, occhiali quadrati dorati e laptop aperto</desc>

  <style>
    @keyframes dev-blink {
      0%, 100% { opacity: 1; }
      50% { opacity: 0; }
    }
    @keyframes dev-float {
      0%, 100% { transform: translateY(0); }
      50% { transform: translateY(-8px); }
    }
    @keyframes dev-float-alt {
      0%, 100% { transform: translateY(0); }
      50% { transform: translateY(6px); }
    }
    @keyframes dev-wave {
      0%, 100% { transform: skewX(0deg); }
      25% { transform: skewX(1deg); }
      75% { transform: skewX(-1deg); }
    }
    .dev-cursor { animation: dev-blink 1s step-end infinite; }
    .dev-bubble-1 { animation: dev-float 5s ease-in-out infinite; transform-origin: center; }
    .dev-bubble-2 { animation: dev-float-alt 6s ease-in-out infinite 0.5s; transform-origin: center; }
    .dev-bubble-3 { animation: dev-float 7s ease-in-out infinite 1s; transform-origin: center; }
    .dev-hair { animation: dev-wave 4s ease-in-out infinite; transform-origin: 200px 130px; }

    @media (prefers-reduced-motion: reduce) {
      .dev-cursor,
      .dev-bubble-1,
      .dev-bubble-2,
      .dev-bubble-3,
      .dev-hair {
        animation: none;
      }
    }
  </style>

  <defs>
    <linearGradient id="dev-hair-gradient" x1="150" y1="104" x2="250" y2="306" gradientUnits="userSpaceOnUse">
      <stop offset="0%" stop-color="#9C744B"/>
      <stop offset="55%" stop-color="#7D5B3B"/>
      <stop offset="100%" stop-color="#604529"/>
    </linearGradient>
    <linearGradient id="dev-lip-gradient" x1="183" y1="229" x2="217" y2="245" gradientUnits="userSpaceOnUse">
      <stop offset="0%" stop-color="#D88A84"/>
      <stop offset="100%" stop-color="#C77471"/>
    </linearGradient>
  </defs>

  <!-- Bolle decorative sfondo -->
  <circle class="dev-bubble-1" cx="40" cy="80" r="28" fill="#B5A642" opacity="0.13"/>
  <circle class="dev-bubble-2" cx="360" cy="60" r="18" fill="#D4C85A" opacity="0.18"/>
  <circle class="dev-bubble-3" cx="370" cy="320" r="24" fill="#B5A642" opacity="0.11"/>
  <circle class="dev-bubble-1" cx="30" cy="300" r="16" fill="#D4C85A" opacity="0.15"/>
  <circle class="dev-bubble-2" cx="200" cy="20" r="10" fill="#B5A642" opacity="0.12"/>
  <circle class="dev-bubble-3" cx="340" cy="180" r="12" fill="#D4C85A" opacity="0.10"/>

  <!-- Corpo / torso -->
  <ellipse cx="200" cy="295" rx="72" ry="55" fill="#4A4A4A"/>
  <!-- Colletto/maglietta -->
  <ellipse cx="200" cy="260" rx="36" ry="20" fill="#3A3A3A"/>


  <!-- Capelli lunghi mossi (dietro) -->
  <path class="dev-hair" d="M134 158 C139 128 165 104 200 104 C235 104 261 128 266 158 C272 196 268 244 246 274 C232 293 216 304 200 306 C184 304 168 293 154 274 C132 244 128 196 134 158 Z" fill="url(#dev-hair-gradient)"/>

  <!-- Viso femminile con zigomi più alti -->
  <path d="M200 116 C223 116 241 132 248 157 C254 177 252 207 245 227 C237 244 223 255 200 260 C177 255 163 244 155 227 C148 207 146 177 152 157 C159 132 177 116 200 116 Z" fill="#F7CFAD"/>
  <!-- Collo umano: forma naturale con leggere linee anatomiche -->
  <path d="M186 247 C190 243 195 241 200 241 C205 241 210 243 214 247 C217 252 219 259 219 268 C215 274 208 278 200 278 C192 278 185 274 181 268 C181 259 183 252 186 247 Z" fill="#F7CFAD"/>
  <path d="M190 253 C188 260 188 267 190 273" fill="none" stroke="#E5B997" stroke-width="1.8" opacity="0.32" stroke-linecap="round"/>
  <path d="M210 253 C212 260 212 267 210 273" fill="none" stroke="#E5B997" stroke-width="1.8" opacity="0.32" stroke-linecap="round"/>

  <!-- Copertura alta fronte: elimina il rosa residuo superiore -->
  <ellipse class="dev-hair" cx="200" cy="138" rx="56" ry="20" fill="url(#dev-hair-gradient)"/>
  <ellipse class="dev-hair" cx="200" cy="118.5" rx="18" ry="4.5" fill="url(#dev-hair-gradient)"/>

  <!-- Sopracciglia -->
  <path d="M162 174 Q175 168 188 173" fill="none" stroke="#6A4A31" stroke-width="3" stroke-linecap="round"/>
  <path d="M212 173 Q225 168 238 174" fill="none" stroke="#6A4A31" stroke-width="3" stroke-linecap="round"/>

  <!-- Occhi -->
  <ellipse cx="175" cy="191" rx="12" ry="9" fill="white"/>
  <ellipse cx="225" cy="191" rx="12" ry="9" fill="white"/>
  <circle cx="175" cy="192" r="6" fill="#4A3728"/>
  <circle cx="225" cy="192" r="6" fill="#4A3728"/>
  <circle cx="175" cy="192" r="3.3" fill="#171717"/>
  <circle cx="225" cy="192" r="3.3" fill="#171717"/>
  <circle cx="178" cy="189" r="1.8" fill="white" opacity="0.85"/>
  <circle cx="228" cy="189" r="1.8" fill="white" opacity="0.85"/>

  <!-- Occhiali quadrati dorati -->
  <rect x="156" y="175" width="38" height="31" rx="8" fill="none" stroke="#C8A24D" stroke-width="3"/>
  <rect x="206" y="175" width="38" height="31" rx="8" fill="none" stroke="#C8A24D" stroke-width="3"/>
  <path d="M194 190 L206 190" fill="none" stroke="#C8A24D" stroke-width="3" stroke-linecap="round"/>
  <line x1="156" y1="189" x2="144" y2="188" stroke="#C8A24D" stroke-width="3" stroke-linecap="round"/>
  <line x1="244" y1="189" x2="256" y2="188" stroke="#C8A24D" stroke-width="3" stroke-linecap="round"/>
  <path d="M163 182 Q169 178 175 182" fill="none" stroke="white" stroke-width="1.4" stroke-linecap="round" opacity="0.55"/>
  <path d="M213 182 Q219 178 225 182" fill="none" stroke="white" stroke-width="1.4" stroke-linecap="round" opacity="0.55"/>

  <!-- Naso -->
  <path d="M200 201 Q196 212 200 217 Q204 212 200 201" fill="none" stroke="#DFAB85" stroke-width="2" stroke-linecap="round"/>

  <!-- Labbra femminili -->
  <path d="M184 231 C190 225 196 223 200 225 C204 223 210 225 216 231 C210 239 205 242 200 242 C195 242 190 239 184 231 Z" fill="#C77471"/>
  <path d="M188 232 Q200 236 212 232" fill="none" stroke="#B96967" stroke-width="1.2" stroke-linecap="round" opacity="0.55"/>

  <!-- Guance -->
  <ellipse cx="166" cy="217" rx="13" ry="7" fill="#F5A7AE" opacity="0.30"/>
  <ellipse cx="234" cy="217" rx="13" ry="7" fill="#F5A7AE" opacity="0.30"/>

  <!-- Braccia -->
  <ellipse cx="135" cy="300" rx="18" ry="42" fill="#4A4A4A" transform="rotate(-10 135 300)"/>
  <ellipse cx="265" cy="300" rx="18" ry="42" fill="#4A4A4A" transform="rotate(10 265 300)"/>
  <!-- Mani -->
  <ellipse cx="128" cy="338" rx="14" ry="11" fill="#F5CBA7" transform="rotate(-10 128 338)"/>
  <ellipse cx="272" cy="338" rx="14" ry="11" fill="#F5CBA7" transform="rotate(10 272 338)"/>

  <!-- Laptop — base -->
  <rect x="110" y="340" width="180" height="12" rx="4" fill="#D4C85A"/>
  <rect x="115" y="336" width="170" height="10" rx="3" fill="#C2B84E"/>
  <!-- Laptop — schermo -->
  <rect x="120" y="270" width="160" height="70" rx="6" fill="#2d3436"/>
  <!-- Schermo interno -->
  <rect x="126" y="275" width="148" height="60" rx="4" fill="#1e272e"/>
  <!-- Linee di codice stilizzate -->
  <rect x="134" y="283" width="60" height="4" rx="2" fill="#B5A642" opacity="0.9"/>
  <rect x="134" y="292" width="90" height="4" rx="2" fill="#D4C85A" opacity="0.7"/>
  <rect x="142" y="301" width="45" height="4" rx="2" fill="#7EC8A0" opacity="0.8"/>
  <rect x="134" y="310" width="75" height="4" rx="2" fill="#D4C85A" opacity="0.6"/>
  <rect x="142" y="319" width="55" height="4" rx="2" fill="#B5A642" opacity="0.7"/>
  <!-- Cursore lampeggiante -->
  <rect class="dev-cursor" x="198" y="319" width="3" height="10" rx="1" fill="#B5A642"/>
  <!-- Cerniera laptop -->
  <rect x="118" y="337" width="164" height="4" rx="2" fill="#B5A642" opacity="0.5"/>
</svg>
