<svg xmlns="http://www.w3.org/2000/svg" viewBox="0 0 1200 720" role="img" aria-labelledby="title desc">
  <title id="title">Realty Mate Dashboard</title>
  <desc id="desc">Illustrazione dashboard gestionale immobiliare</desc>
  <defs>
    <linearGradient id="bg" x1="0" y1="0" x2="1" y2="1">
      <stop offset="0%" stop-color="#f1f1f1"/>
      <stop offset="100%" stop-color="#dadada"/>
    </linearGradient>
  </defs>
  <rect width="1200" height="720" fill="url(#bg)"/>
  <rect x="190" y="110" width="820" height="500" rx="26" fill="#ffffff" stroke="#c8c8c8" stroke-width="7"/>
  <rect x="190" y="110" width="820" height="72" rx="26" fill="#e6e6e6"/>
  <circle cx="240" cy="146" r="10" fill="#9f9f9f"/>
  <circle cx="272" cy="146" r="10" fill="#8d8d8d"/>
  <circle cx="304" cy="146" r="10" fill="#7b7b7b"/>
  <rect x="250" y="230" width="190" height="320" rx="16" fill="#efefef"/>
  <rect x="470" y="230" width="500" height="150" rx="16" fill="#efefef"/>
  <rect x="470" y="400" width="300" height="150" rx="16" fill="#efefef"/>
  <rect x="790" y="400" width="180" height="150" rx="16" fill="#efefef"/>
  <rect x="515" y="285" width="48" height="60" rx="8" fill="#5f5f5f"/>
  <rect x="580" y="255" width="48" height="90" rx="8" fill="#6a6a6a"/>
  <rect x="645" y="270" width="48" height="75" rx="8" fill="#7a7a7a"/>
  <rect x="710" y="238" width="48" height="107" rx="8" fill="#4e4e4e"/>
  <rect x="275" y="268" width="140" height="16" rx="8" fill="#b3b3b3"/>
  <rect x="275" y="308" width="120" height="14" rx="7" fill="#bdbdbd"/>
  <rect x="275" y="344" width="96" height="14" rx="7" fill="#bdbdbd"/>
  <rect x="275" y="388" width="140" height="16" rx="8" fill="#b3b3b3"/>
  <rect x="275" y="428" width="110" height="14" rx="7" fill="#bdbdbd"/>
  <path d="M845 448a42 42 0 1 1-42 42h42z" fill="#666"/>
  <path d="M845 448v42h42a42 42 0 0 0-42-42z" fill="#9a9a9a"/>
  <text x="600" y="665" text-anchor="middle" font-family="Inter, Arial, sans-serif" font-size="48" font-weight="700" fill="#4f4f4f">REALTY MATE DASHBOARD</text>
</svg>
