<svg xmlns="http://www.w3.org/2000/svg" viewBox="0 0 1200 720" role="img" aria-labelledby="title desc">
  <title id="title">Tech Blog</title>
  <desc id="desc">Illustrazione blog tecnico con codice e contenuti</desc>
  <defs>
    <linearGradient id="bg" x1="0" y1="0" x2="1" y2="1">
      <stop offset="0%" stop-color="#f2f2f2"/>
      <stop offset="100%" stop-color="#d9d9d9"/>
    </linearGradient>
  </defs>
  <rect width="1200" height="720" fill="url(#bg)"/>
  <rect x="240" y="130" width="720" height="460" rx="24" fill="#ffffff" stroke="#c8c8c8" stroke-width="7"/>
  <rect x="240" y="130" width="720" height="72" rx="24" fill="#e8e8e8"/>
  <circle cx="290" cy="166" r="10" fill="#a0a0a0"/>
  <circle cx="322" cy="166" r="10" fill="#8f8f8f"/>
  <circle cx="354" cy="166" r="10" fill="#7d7d7d"/>
  <rect x="300" y="245" width="270" height="290" rx="14" fill="#efefef"/>
  <rect x="600" y="245" width="300" height="120" rx="14" fill="#efefef"/>
  <rect x="600" y="385" width="300" height="150" rx="14" fill="#efefef"/>
  <path d="M370 360l-44-42 44-42" fill="none" stroke="#5a5a5a" stroke-width="14" stroke-linecap="round" stroke-linejoin="round"/>
  <path d="M500 276l44 42-44 42" fill="none" stroke="#5a5a5a" stroke-width="14" stroke-linecap="round" stroke-linejoin="round"/>
  <path d="M436 267l-20 103" stroke="#777" stroke-width="12" stroke-linecap="round"/>
  <rect x="640" y="286" width="220" height="18" rx="9" fill="#7b7b7b"/>
  <rect x="640" y="320" width="150" height="14" rx="7" fill="#aaaaaa"/>
  <rect x="640" y="423" width="220" height="18" rx="9" fill="#7b7b7b"/>
  <rect x="640" y="457" width="240" height="14" rx="7" fill="#b0b0b0"/>
  <rect x="640" y="485" width="200" height="14" rx="7" fill="#b0b0b0"/>
  <text x="600" y="655" text-anchor="middle" font-family="Inter, Arial, sans-serif" font-size="54" font-weight="700" fill="#4e4e4e">TECH BLOG</text>
</svg>
